<svg width="26" height="28" viewBox="0 0 26 28" fill="none" xmlns="http://www.w3.org/2000/svg">
<path d="M25.7265 27.3964C21.7433 25.3704 18.0289 23.5269 14.3592 21.5856C13.3226 21.0383 12.5004 20.996 11.4382 21.566C7.74297 23.5562 3.98693 25.4323 0.109311 27.4257C0.109311 22.1849 0.109311 17.1623 0.109311 12.0354C1.25148 12.1494 1.78577 12.6315 1.76978 13.8594C1.71859 17.3153 1.75058 20.768 1.75058 24.504C5.16109 22.7614 8.35085 21.1914 11.483 19.5009C12.4908 18.957 13.2683 18.9635 14.2729 19.4977C17.3666 21.1458 20.5212 22.68 23.679 24.2695C24.5076 21.1491 24.2484 20.5628 21.6218 19.2176C14.8743 15.7617 8.13969 12.2764 1.36986 8.86614C0.368459 8.36127 -0.044259 7.80103 0.00373135 6.65123C0.0933133 4.54381 0.0293268 2.43314 0.0293268 0.0651443C0.880355 0.475553 1.53942 0.781731 2.18889 1.10745C5.23468 2.65137 8.31566 4.13015 11.3039 5.78155C12.4908 6.43625 13.3738 6.32877 14.5096 5.71967C18.1281 3.78163 21.7977 1.95433 25.6114 0C25.6114 5.22457 25.6114 10.2798 25.6114 15.3806C24.4692 15.2568 23.9477 14.7291 23.9701 13.4881C24.0309 10.0713 23.9925 6.65449 23.9925 3.02269C23.4486 3.2507 23.0263 3.39402 22.6296 3.59922C19.7757 5.05845 16.9539 6.58283 14.0585 7.95086C13.4122 8.25704 12.398 8.26681 11.7518 7.9704C9.04191 6.72289 6.40884 5.29949 3.74378 3.951C3.18709 3.66762 2.60801 3.42333 1.77297 3.03572C1.77297 4.26369 1.6226 5.30274 1.83056 6.25711C1.94894 6.79455 2.57921 7.35805 3.1167 7.63817C10.1777 11.3058 17.2483 14.9539 24.3572 18.527C25.4322 19.0677 25.8129 19.6899 25.7585 20.8787C25.6626 22.9275 25.7265 24.9893 25.7265 27.3964Z" fill="url(#paint0_linear_505_55)"/>
<defs>
<linearGradient id="paint0_linear_505_55" x1="3.82882" y1="6.81194" x2="24.6894" y2="22.1871" gradientUnits="userSpaceOnUse">
<stop stop-color="#FFDF00"/>
<stop offset="0.0517" stop-color="#FED700"/>
<stop offset="0.2345" stop-color="#FBBF12"/>
<stop offset="0.4205" stop-color="#F9AC19"/>
<stop offset="0.6085" stop-color="#F89E1C"/>
<stop offset="0.8" stop-color="#F8961D"/>
<stop offset="1" stop-color="#F7941D"/>
</linearGradient>
</defs>
</svg>
